<svg width="48" height="48" viewBox="0 0 48 48" fill="none" xmlns="http://www.w3.org/2000/svg">
<g clip-path="url(#clip0_36409_1655)">
<mask id="mask0_36409_1655" style="mask-type:luminance" maskUnits="userSpaceOnUse" x="0" y="0" width="48" height="48">
<path d="M0 3.8147e-06H48V48H0V3.8147e-06Z" fill="white"/>
</mask>
<g mask="url(#mask0_36409_1655)">
<path fill-rule="evenodd" clip-rule="evenodd" d="M39.7972 40.1621C39.7972 40.5504 40.112 40.8652 40.5003 40.8652H43.2072C45.8565 40.8652 48.0002 38.7111 48.0002 36.0587V16.4756C48.0002 13.8232 45.8565 11.669 43.2072 11.669H32.4292C32.0409 11.669 31.7261 11.9838 31.7261 12.3722C31.7261 12.7605 32.0409 13.0753 32.4292 13.0753H43.2072C45.0755 13.0753 46.594 14.5954 46.594 16.4756V36.0587C46.594 37.9388 45.0755 39.459 43.2072 39.459H40.5003C40.112 39.459 39.7972 39.7738 39.7972 40.1621Z" fill="url(#paint0_linear_36409_1655)"/>
<path fill-rule="evenodd" clip-rule="evenodd" d="M6.56255 47.9381C6.81494 48.0516 7.11043 48.0065 7.31748 47.8229L15.1638 40.8649H36.3454C36.7337 40.8649 37.0485 40.5501 37.0485 40.1617C37.0485 39.7734 36.7337 39.4586 36.3454 39.4586H14.897C14.725 39.4586 14.5591 39.5216 14.4305 39.6357L7.55409 45.7336V40.1617C7.55409 39.7734 7.23929 39.4586 6.85097 39.4586H4.79306C2.92484 39.4586 1.40625 37.9385 1.40625 36.0583V16.4753C1.40625 14.5952 2.92486 13.0749 4.79306 13.0749H15.3665C15.7548 13.0749 16.0696 12.7601 16.0696 12.3718C16.0696 11.9835 15.7548 11.6687 15.3665 11.6687H4.79306C2.14383 11.6687 0 13.8229 0 16.4753V36.0583C0 38.7108 2.14385 40.8649 4.79306 40.8649H6.14784V47.2969C6.14784 47.5736 6.31017 47.8246 6.56255 47.9381Z" fill="url(#paint1_linear_36409_1655)"/>
<path fill-rule="evenodd" clip-rule="evenodd" d="M7.53125 22.0127C7.53125 22.401 7.84605 22.7158 8.23437 22.7158H39.7661C40.1544 22.7158 40.4692 22.401 40.4692 22.0127C40.4692 21.6244 40.1544 21.3096 39.7661 21.3096H8.23437C7.84605 21.3096 7.53125 21.6244 7.53125 22.0127Z" fill="url(#paint2_linear_36409_1655)"/>
<path fill-rule="evenodd" clip-rule="evenodd" d="M7.53125 26.7656C7.53125 27.154 7.84605 27.4688 8.23437 27.4688H39.7661C40.1544 27.4688 40.4692 27.154 40.4692 26.7656C40.4692 26.3773 40.1544 26.0625 39.7661 26.0625H8.23437C7.84605 26.0625 7.53125 26.3773 7.53125 26.7656Z" fill="url(#paint3_linear_36409_1655)"/>
<path fill-rule="evenodd" clip-rule="evenodd" d="M7.53125 31.5176C7.53125 31.9059 7.84605 32.2207 8.23437 32.2207H27.1558C27.5442 32.2207 27.859 31.9059 27.859 31.5176C27.859 31.1293 27.5442 30.8145 27.1558 30.8145H8.23437C7.84605 30.8145 7.53125 31.1293 7.53125 31.5176Z" fill="url(#paint4_linear_36409_1655)"/>
<path fill-rule="evenodd" clip-rule="evenodd" d="M14.4194 9.58082C14.4194 14.8719 18.7088 19.1611 23.9998 19.1611C29.291 19.1611 33.5802 14.8719 33.5802 9.58082C33.5802 4.28975 29.291 0.000415802 23.9998 0.000415802C22.3014 0.000415802 20.7041 0.443054 19.3194 1.2198C18.9807 1.40978 18.8601 1.83834 19.0501 2.17702C19.2401 2.51571 19.6686 2.63626 20.0073 2.44628C21.1874 1.78434 22.5485 1.40667 23.9998 1.40667C28.5144 1.40667 32.174 5.06639 32.174 9.58082C32.174 14.0952 28.5144 17.7549 23.9998 17.7549C19.4854 17.7549 15.8257 14.0952 15.8257 9.58082C15.8257 7.74226 16.4319 6.0473 17.4556 4.68215C17.6885 4.37146 17.6255 3.93075 17.3149 3.69778C17.0042 3.46482 16.5635 3.52782 16.3305 3.8385C15.1306 5.43865 14.4194 7.4277 14.4194 9.58082Z" fill="url(#paint5_linear_36409_1655)"/>
<path fill-rule="evenodd" clip-rule="evenodd" d="M18.4359 15.5657C19.6191 13.7446 21.6691 12.5419 23.9997 12.5419C26.2779 12.5419 28.3019 13.7375 29.5408 15.5871C28.0833 16.9329 26.1384 17.7549 23.9999 17.7549C21.85 17.7549 19.8958 16.9242 18.4359 15.5657ZM17.0405 16.1613C18.7856 18.0063 21.2575 19.1611 23.9999 19.1611C26.7337 19.1611 29.1986 18.0134 30.9428 16.1787C31.1564 15.954 31.1976 15.6159 31.0443 15.3464C29.6211 12.8461 27.015 11.1357 23.9997 11.1357C20.9465 11.1357 18.2935 12.8389 16.9334 15.3425C16.7882 15.6098 16.8314 15.9403 17.0405 16.1613Z" fill="url(#paint6_linear_36409_1655)"/>
<path fill-rule="evenodd" clip-rule="evenodd" d="M19.8706 8.4364C19.8706 10.7168 21.7191 12.5654 23.9996 12.5654C26.28 12.5654 28.1287 10.7168 28.1287 8.4364C28.1287 6.1559 26.28 4.30737 23.9996 4.30737C21.7192 4.30737 19.8706 6.15592 19.8706 8.4364ZM23.9996 11.1592C22.4958 11.1592 21.2769 9.94015 21.2769 8.4364C21.2769 6.93257 22.4958 5.71362 23.9996 5.71362C25.5034 5.71362 26.7224 6.93258 26.7224 8.4364C26.7224 9.94014 25.5034 11.1592 23.9996 11.1592Z" fill="url(#paint7_linear_36409_1655)"/>
</g>
</g>
<defs>
<linearGradient id="paint0_linear_36409_1655" x1="31.7261" y1="26.2671" x2="48.0002" y2="26.2671" gradientUnits="userSpaceOnUse">
<stop stop-color="#0CBAF1"/>
<stop offset="1" stop-color="#E95CE9"/>
</linearGradient>
<linearGradient id="paint1_linear_36409_1655" x1="0" y1="29.8343" x2="37.0485" y2="29.8343" gradientUnits="userSpaceOnUse">
<stop stop-color="#0CBAF1"/>
<stop offset="1" stop-color="#E95CE9"/>
</linearGradient>
<linearGradient id="paint2_linear_36409_1655" x1="7.53125" y1="22.0127" x2="40.4692" y2="22.0127" gradientUnits="userSpaceOnUse">
<stop stop-color="#0CBAF1"/>
<stop offset="1" stop-color="#E95CE9"/>
</linearGradient>
<linearGradient id="paint3_linear_36409_1655" x1="7.53125" y1="26.7656" x2="40.4692" y2="26.7656" gradientUnits="userSpaceOnUse">
<stop stop-color="#0CBAF1"/>
<stop offset="1" stop-color="#E95CE9"/>
</linearGradient>
<linearGradient id="paint4_linear_36409_1655" x1="7.53125" y1="31.5176" x2="27.859" y2="31.5176" gradientUnits="userSpaceOnUse">
<stop stop-color="#0CBAF1"/>
<stop offset="1" stop-color="#E95CE9"/>
</linearGradient>
<linearGradient id="paint5_linear_36409_1655" x1="14.4194" y1="9.58077" x2="33.5802" y2="9.58077" gradientUnits="userSpaceOnUse">
<stop stop-color="#0CBAF1"/>
<stop offset="1" stop-color="#E95CE9"/>
</linearGradient>
<linearGradient id="paint6_linear_36409_1655" x1="16.8481" y1="15.1484" x2="31.1363" y2="15.1484" gradientUnits="userSpaceOnUse">
<stop stop-color="#0CBAF1"/>
<stop offset="1" stop-color="#E95CE9"/>
</linearGradient>
<linearGradient id="paint7_linear_36409_1655" x1="19.8706" y1="8.4364" x2="28.1287" y2="8.4364" gradientUnits="userSpaceOnUse">
<stop stop-color="#0CBAF1"/>
<stop offset="1" stop-color="#E95CE9"/>
</linearGradient>
<clipPath id="clip0_36409_1655">
<rect width="48" height="48" fill="white"/>
</clipPath>
</defs>
</svg>
