<svg width="50" height="50" viewBox="0 0 50 50" fill="none" xmlns="http://www.w3.org/2000/svg">
<g clip-path="url(#clip0_1_47)">
<path d="M12.7207 26.8694L12.7454 26.2205L12.7331 26.22H12.7207V26.8694ZM13.6803 27.2752L13.2083 27.7344L13.2146 27.7406L13.2212 27.7466L13.6803 27.2752ZM14.0976 28.1884H14.7651V28.1763L14.7647 28.1643L14.0976 28.1884ZM14.0976 35.2094L14.7618 35.2741L14.7651 35.2418V35.2094H14.0976ZM12.7207 36.5284V37.1778H12.7485L12.7761 37.1755L12.7207 36.5284ZM11.6985 36.1632L11.2387 36.634L11.2511 36.6454L11.2641 36.6562L11.6985 36.1632ZM11.2813 28.1884L10.6141 28.1652L10.6137 28.1768V28.1884H11.2813ZM11.7194 27.2549L12.166 27.7375L12.1726 27.7317L12.1791 27.7257L11.7194 27.2549ZM12.696 27.5183C12.9042 27.5258 13.0639 27.5939 13.2083 27.7344L14.1524 26.816C13.7683 26.4424 13.2883 26.24 12.7454 26.2205L12.696 27.5183ZM13.2212 27.7466C13.3541 27.8691 13.4228 28.0108 13.4305 28.2124L14.7647 28.1643C14.7445 27.6353 14.535 27.1683 14.1394 26.8038L13.2212 27.7466ZM13.43 28.1884V35.2094H14.7651V28.1884H13.43ZM13.4333 35.1448C13.4024 35.446 13.311 35.6004 13.2223 35.6853C13.1339 35.7701 12.9742 35.8563 12.6653 35.8814L12.7761 37.1755C13.3016 37.133 13.7887 36.9655 14.1592 36.6106C14.5295 36.2559 14.7093 35.7845 14.7618 35.2741L13.4333 35.1448ZM12.7207 35.8791C12.4885 35.8791 12.3024 35.8114 12.1329 35.6701L11.2641 36.6562C11.6787 37.002 12.1741 37.1778 12.7207 37.1778V35.8791ZM12.1583 35.6924C12.015 35.56 11.9489 35.4132 11.9489 35.2094H10.6137C10.6137 35.7632 10.8257 36.2523 11.2387 36.634L12.1583 35.6924ZM11.9489 35.2094V28.1884H10.6137V35.2094H11.9489ZM11.9484 28.2115C11.9561 28.0005 12.0284 27.858 12.166 27.7375L11.2728 26.7723C10.854 27.1388 10.6342 27.6186 10.6141 28.1652L11.9484 28.2115ZM12.1791 27.7257C12.3312 27.5852 12.4995 27.5187 12.7207 27.5187V26.22C12.163 26.22 11.6638 26.4105 11.2596 26.7842L12.1791 27.7257ZM11.6359 24.2314C11.6359 24.0691 11.6949 23.9195 11.8964 23.7562L11.0416 22.7585C10.5756 23.1363 10.3008 23.636 10.3008 24.2314H11.6359ZM11.8964 23.7562C12.0993 23.5917 12.3475 23.5008 12.679 23.5008V22.2021C12.0648 22.2021 11.5063 22.3818 11.0416 22.7585L11.8964 23.7562ZM12.679 23.5008C13.0105 23.5008 13.2587 23.5917 13.4616 23.7562L14.3163 22.7585C13.8516 22.3818 13.2932 22.2021 12.679 22.2021V23.5008ZM13.4616 23.7562C13.663 23.9195 13.7221 24.0691 13.7221 24.2314H15.0572C15.0572 23.636 14.7824 23.1363 14.3163 22.7585L13.4616 23.7562ZM13.7221 24.2314C13.7221 24.4146 13.6566 24.5688 13.4616 24.7268L14.3163 25.7246C14.7889 25.3414 15.0572 24.8327 15.0572 24.2314H13.7221ZM13.4616 24.7268C13.2587 24.8913 13.0105 24.9821 12.679 24.9821V26.2808C13.2932 26.2808 13.8516 26.1012 14.3163 25.7246L13.4616 24.7268ZM12.679 24.9821C12.3475 24.9821 12.0993 24.8913 11.8964 24.7268L11.0416 25.7246C11.5063 26.1012 12.0648 26.2808 12.679 26.2808V24.9821ZM11.8964 24.7268C11.7014 24.5688 11.6359 24.4146 11.6359 24.2314H10.3008C10.3008 24.8327 10.5691 25.3414 11.0416 25.7246L11.8964 24.7268ZM25.4253 27.0114L25.2695 27.6428L25.2724 27.6435L25.4253 27.0114ZM27.4489 27.7419L27.1401 28.3176L27.1452 28.3202L27.1503 28.3227L27.4489 27.7419ZM29.1387 29.0001L28.6418 29.4338L28.6481 29.4405L29.1387 29.0001ZM29.9522 30.8872H30.6198V30.8692L30.6188 30.8512L29.9522 30.8872ZM29.9522 35.2094L30.6165 35.2741L30.6198 35.2418V35.2094H29.9522ZM28.5754 36.5284V37.1778H28.6032L28.6308 37.1755L28.5754 36.5284ZM27.5532 36.1632L27.0934 36.634L27.1057 36.6454L27.1188 36.6562L27.5532 36.1632ZM27.136 31.5163H27.8036V31.4953L27.8021 31.4745L27.136 31.5163ZM26.6353 30.4814L26.1632 30.9405L26.1745 30.9514L26.1862 30.9618L26.6353 30.4814ZM25.634 29.8118L25.3542 30.4013L25.3585 30.4033L25.3628 30.4051L25.634 29.8118ZM24.4866 29.4464L24.3467 30.0814L24.3513 30.0823L24.4866 29.4464ZM22.0875 29.4464L21.9522 28.8106L21.9476 28.8115L22.0875 29.4464ZM20.9401 29.8118L20.669 29.2183L20.6647 29.2202L20.6603 29.2221L20.9401 29.8118ZM19.459 31.5163L18.7928 31.4745L18.7914 31.4953V31.5163H19.459ZM19.459 35.2094L20.1242 35.2634L20.1265 35.2364V35.2094H19.459ZM18.103 36.5284V37.1778H18.1307L18.1584 37.1755L18.103 36.5284ZM17.0807 36.1632L16.621 36.634L16.6333 36.6454L16.6463 36.6562L17.0807 36.1632ZM16.6635 30.8872L15.997 30.8512L15.9959 30.8692V30.8872H16.6635ZM19.146 27.7419L19.4446 28.3227L19.4497 28.3202L19.4548 28.3176L19.146 27.7419ZM21.1487 27.0114L20.9959 26.3793L20.9929 26.38L21.1487 27.0114ZM23.2975 27.4172C23.9688 27.4172 24.6257 27.4925 25.2695 27.6428L25.5811 26.38C24.8342 26.2056 24.0725 26.1185 23.2975 26.1185V27.4172ZM25.2724 27.6435C25.9281 27.7936 26.5501 28.0183 27.1401 28.3176L27.7577 27.1662C27.0681 26.8162 26.3411 26.5539 25.5782 26.3793L25.2724 27.6435ZM27.1503 28.3227C27.7136 28.5967 28.2099 28.9657 28.6418 29.4338L29.6355 28.5663C29.0938 27.9792 28.4636 27.5094 27.7474 27.1611L27.1503 28.3227ZM28.6481 29.4405C29.0415 29.8549 29.2524 30.3402 29.2857 30.9232L30.6188 30.8512C30.5686 29.9732 30.2372 29.2003 29.6292 28.5596L28.6481 29.4405ZM29.2847 30.8872V31.7395H30.6198V30.8872H29.2847ZM29.2847 31.7395V35.2094H30.6198V31.7395H29.2847ZM29.288 35.1448C29.257 35.446 29.1657 35.6004 29.077 35.6853C28.9886 35.7701 28.8289 35.8563 28.52 35.8814L28.6308 37.1755C29.1563 37.133 29.6434 36.9655 30.0139 36.6106C30.3842 36.2559 30.564 35.7845 30.6165 35.2741L29.288 35.1448ZM28.5754 35.8791C28.3431 35.8791 28.1571 35.8114 27.9876 35.6701L27.1188 36.6562C27.5334 37.002 28.0288 37.1778 28.5754 37.1778V35.8791ZM28.013 35.6924C27.8697 35.56 27.8036 35.4132 27.8036 35.2094H26.4684C26.4684 35.7632 26.6804 36.2523 27.0934 36.634L28.013 35.6924ZM27.8036 35.2094V34.3166H26.4684V35.2094H27.8036ZM27.8036 34.3166V31.5163H26.4684V34.3166H27.8036ZM27.8021 31.4745C27.7637 30.8953 27.5246 30.3903 27.0843 30.0009L26.1862 30.9618C26.3579 31.1136 26.4525 31.2984 26.4698 31.5581L27.8021 31.4745ZM27.1074 30.0222C26.7576 29.6821 26.3558 29.4132 25.9051 29.2183L25.3628 30.4051C25.6631 30.5349 25.9288 30.7125 26.1632 30.9405L27.1074 30.0222ZM25.9137 29.2221C25.5043 29.0384 25.0733 28.9014 24.6218 28.8106L24.3513 30.0823C24.7065 30.1538 25.0404 30.2604 25.3542 30.4013L25.9137 29.2221ZM24.6264 28.8115C24.1905 28.7207 23.7472 28.6754 23.2975 28.6754V29.9741C23.6544 29.9741 24.0038 30.0099 24.3467 30.0814L24.6264 28.8115ZM23.2975 28.6754C22.8477 28.6754 22.3991 28.7207 21.9522 28.8106L22.2228 30.0823C22.5825 30.0099 22.9405 29.9741 23.2975 29.9741V28.6754ZM21.9476 28.8115C21.5117 28.9024 21.0853 29.0384 20.669 29.2183L21.2112 30.4051C21.5459 30.2604 21.8844 30.1529 22.2274 30.0814L21.9476 28.8115ZM20.6603 29.2221C20.2279 29.4163 19.8337 29.6812 19.4778 30.0116L20.3992 30.9516C20.6553 30.7138 20.9291 30.5318 21.2199 30.4013L20.6603 29.2221ZM19.4778 30.0116C19.0551 30.4031 18.8305 30.9049 18.7928 31.4745L20.1251 31.5581C20.143 31.2889 20.2378 31.1011 20.3992 30.9516L19.4778 30.0116ZM18.7914 31.5163V34.3166H20.1265V31.5163H18.7914ZM18.7914 34.3166V35.2094H20.1265V34.3166H18.7914ZM18.7937 35.1555C18.7679 35.4564 18.6794 35.6074 18.5958 35.6888C18.5121 35.7702 18.3569 35.8562 18.0475 35.8814L18.1584 37.1755C18.6835 37.133 19.1715 36.9654 19.5398 36.6071C19.9082 36.2488 20.0804 35.7742 20.1242 35.2634L18.7937 35.1555ZM18.103 35.8791C17.8707 35.8791 17.6847 35.8114 17.5152 35.6701L16.6463 36.6562C17.061 37.002 17.5564 37.1778 18.103 37.1778V35.8791ZM17.5405 35.6924C17.3973 35.56 17.331 35.4132 17.331 35.2094H15.9959C15.9959 35.7632 16.2079 36.2523 16.621 36.634L17.5405 35.6924ZM17.331 35.2094V31.7395H15.9959V35.2094H17.331ZM17.331 31.7395V30.8872H15.9959V31.7395H17.331ZM17.33 30.9232C17.3636 30.3351 17.5712 29.8477 17.9531 29.4338L16.9594 28.5663C16.3678 29.2076 16.0469 29.9783 15.997 30.8512L17.33 30.9232ZM17.9531 29.4338C18.3849 28.9657 18.8813 28.5967 19.4446 28.3227L18.8475 27.1611C18.1313 27.5094 17.5011 27.9792 16.9594 28.5663L17.9531 29.4338ZM19.4548 28.3176C20.0466 28.0173 20.6628 27.7927 21.3045 27.6428L20.9929 26.38C20.2439 26.5548 19.525 26.8171 18.8372 27.1662L19.4548 28.3176ZM21.3016 27.6435C21.9612 27.4925 22.6261 27.4172 23.2975 27.4172V26.1185C22.5224 26.1185 21.7549 26.2056 20.9959 26.3793L21.3016 27.6435Z" fill="white"/>
<path d="M0 50V0H5.47404V12.3377H31.3756C32.8442 12.3377 34.1794 12.7056 35.381 13.4416C36.6271 14.1342 37.6062 15.0866 38.3183 16.2987C39.0748 17.4675 39.4531 18.7662 39.4531 20.1948V42.1429C39.4531 43.5714 39.0748 44.8916 38.3183 46.1039C37.6062 47.2727 36.6271 48.2253 35.381 48.961C34.1794 49.6539 32.8442 50 31.3756 50H0ZM8.1443 44.6753H31.3756C32.0877 44.6753 32.6885 44.437 33.178 43.961C33.7121 43.4416 33.9791 42.8357 33.9791 42.1429V20.1948C33.9791 19.5021 33.7121 18.9177 33.178 18.4416C32.6885 17.9221 32.0877 17.6623 31.3756 17.6623H8.1443C7.43221 17.6623 6.80917 17.9221 6.27512 18.4416C5.74106 18.9177 5.47404 19.5021 5.47404 20.1948V42.1429C5.47404 42.8357 5.74106 43.4416 6.27512 43.961C6.80917 44.437 7.43221 44.6753 8.1443 44.6753ZM44.5261 50V44.6753H50V50H44.5261Z" fill="white"/>
</g>
<defs>
<clipPath id="clip0_1_47">
<rect width="50" height="50" fill="white"/>
</clipPath>
</defs>
</svg>
